<svg width="59" height="42" viewBox="0 0 59 42" fill="none" xmlns="http://www.w3.org/2000/svg">
<path d="M14.1475 26.5474L10.3057 22.7721C13.1514 19.9755 16.1293 17.8781 19.2393 16.4798C22.3493 15.0815 25.6931 14.3824 29.2706 14.3824C32.8481 14.3824 36.1919 15.0815 39.3019 16.4798C42.4119 17.8781 45.3897 19.9755 48.2355 22.7721L44.3937 26.5474C41.9139 24.1104 39.4137 22.3725 36.8931 21.3338C34.3726 20.2951 31.8318 19.7757 29.2706 19.7757C26.7094 19.7757 24.1686 20.2951 21.648 21.3338C19.1275 22.3725 16.6273 24.1104 14.1475 26.5474ZM3.84176 16.4199L0 12.6445C3.78078 8.84914 8.18154 5.79289 13.2023 3.47573C18.223 1.15858 23.5791 0 29.2706 0C34.9621 0 40.3182 1.15858 45.3389 3.47573C50.3596 5.79289 54.7604 8.84914 58.5412 12.6445L54.6994 16.4199C51.1219 13.064 47.209 10.3873 42.9607 8.38971C38.7124 6.39216 34.149 5.39338 29.2706 5.39338C24.3922 5.39338 19.8288 6.39216 15.5805 8.38971C11.3322 10.3873 7.41928 13.064 3.84176 16.4199ZM29.2706 41.4092L38.2957 32.4801C37.1167 31.3216 35.765 30.4127 34.2405 29.7535C32.716 29.0943 31.0593 28.7647 29.2706 28.7647C27.4818 28.7647 25.8252 29.0943 24.3007 29.7535C22.7762 30.4127 21.4244 31.3216 20.2455 32.4801L29.2706 41.4092Z" fill="#1D1D1D"/>
</svg>
